<?xml version="1.0" encoding="UTF-8" standalone="no"?>
<!-- Created with Inkscape (http://www.inkscape.org/) -->

<svg
   xmlns:dc="http://purl.org/dc/elements/1.1/"
   xmlns:cc="http://creativecommons.org/ns#"
   xmlns:rdf="http://www.w3.org/1999/02/22-rdf-syntax-ns#"
   xmlns:svg="http://www.w3.org/2000/svg"
   xmlns="http://www.w3.org/2000/svg"
   xmlns:sodipodi="http://sodipodi.sourceforge.net/DTD/sodipodi-0.dtd"
   xmlns:inkscape="http://www.inkscape.org/namespaces/inkscape"
   width="100mm"
   height="100mm"
   viewBox="0 0 354.33071 354.33071"
   id="svg2"
   version="1.1"
   inkscape:version="0.91 r13725"
   sodipodi:docname="optionInco.svg">
  <defs
     id="defs4" />
  <sodipodi:namedview
     id="base"
     pagecolor="#ffffff"
     bordercolor="#666666"
     borderopacity="1.0"
     inkscape:pageopacity="0.0"
     inkscape:pageshadow="2"
     inkscape:zoom="2.8"
     inkscape:cx="350.94203"
     inkscape:cy="185.01002"
     inkscape:document-units="px"
     inkscape:current-layer="layer1"
     showgrid="false"
     inkscape:window-width="1920"
     inkscape:window-height="1043"
     inkscape:window-x="-6"
     inkscape:window-y="0"
     inkscape:window-maximized="1" />
  <metadata
     id="metadata7">
    <rdf:RDF>
      <cc:Work
         rdf:about="">
        <dc:format>image/svg+xml</dc:format>
        <dc:type
           rdf:resource="http://purl.org/dc/dcmitype/StillImage" />
        <dc:title></dc:title>
      </cc:Work>
    </rdf:RDF>
  </metadata>
  <g
     inkscape:label="Calque 1"
     inkscape:groupmode="layer"
     id="layer1"
     transform="translate(0,-698.0315)">
    <path
       style="fill:#000000;fill-rule:evenodd;stroke:#000000;stroke-width:1px;stroke-linecap:butt;stroke-linejoin:miter;stroke-opacity:1"
       d="m 151.39661,761.75395 0.50508,17.67768 -35.35534,13.63705 -15.15229,-15.15228 -24.748736,27.27412 14.647213,14.14214 -16.667517,37.88071 -17.172594,-0.50507 0,35.86042 16.162441,-0.50509 15.152288,37.37565 -14.647212,15.15228 26.263967,21.71829 9.59645,-11.61675 40.4061,18.18275 0,19.69797 37.88072,0 -0.50508,-19.69798 40.91118,-15.15229 13.63706,14.64722 24.24366,-25.75889 -14.64721,-13.63706 16.66751,-38.89088 15.65737,0 0,-37.37563 -16.66752,0.50507 -14.14213,-37.37565 15.65736,-14.64721 -24.74873,-25.7589 -14.01587,16.35185 -36.49176,-15.78363 -0.12627,-17.29886 c -14.40643,-0.29866 -28.4143,-1.11064 -42.30014,-0.94703 z"
       id="path3344"
       inkscape:connector-curvature="0"
       sodipodi:nodetypes="ccccccccccccccccccccccccccccccccc" />
    <ellipse
       style="fill:#ffffff"
       id="path3350"
       cx="171.38673"
       cy="879.34827"
       rx="33.919334"
       ry="34.363132" />
  </g>
</svg>
